<svg xmlns="http://www.w3.org/2000/svg" stroke="#000000" stroke-width="6" fill="none" width="100%" height="100%" viewBox="0 0 240 240" stroke-linecap="round" stroke-linejoin="round"><circle cx="120" cy="120" r="120" fill="#fff5f6" stroke="none"/><path d="M167.643 185.426c-31.812 3.791-63.623 3.821-95.435 0"/><path fill="#ffbac1" d="M137.462 82.616c9.61 19.495 19.494 38.88 32.354 57.075 1.105 21.868-.719 43.346-5.006 64.495 0 0 4.142-.116 5.885-1.086 12.853-7.152 23.406-18.829 29.681-32.652l2.393 11.967c5.218-12.945 7.512-26.827 9.339-42.194l5.392 6.031c-2.79-19.613-6.173-33.414-14.017-48.191 3.13-13.522 6.198-27.083 7.613-41.696-14.183-.62-26.975 1.115-39.095 3.986-15.21-10.13-35.337-18.103-52.002-15.796-16.665-2.306-36.993 5.778-52.204 15.908-12.557-3.363-25.545-4.428-39.053-3.992 1.568 14.759 4.13 28.137 7.773 41.592-7.844 14.777-11.226 28.578-14.017 48.191l5.392-6.031c1.827 15.367 4.12 29.25 9.339 42.194l2.393-11.967c6.276 13.824 16.842 25.475 29.681 32.652 1.703.952 5.752 1.085 5.752 1.085-4.697-21.855-5.339-43.232-5.006-64.495 12.085-17.773 23.201-36.58 32.176-57.075.868 16.66 2.168 39.37 6.783 57.14 1.034 3.981 5.221.954 10.923 1.06 5.453.101 10.002 2.637 10.923-1.06 4.737-19.018 6.285-41.038 6.605-57.14z"/><path d="M119.777 44.525c-2.786-11.124-26.219-13.531-45.246-4.47"/><path fill="#0000" d="M141.339 136.059l26.309-4.716m-7.96 1.534l.094 22.831c.007.944-.534 1.954-2.06 1.97h-12.319c-1.575.019-2.132-1.092-2.14-2.06v-19.811m-44.605.252l-26.309-4.716m7.96 1.534l-.094 22.831c-.007.944.534 1.954 2.06 1.97h12.319c1.575.019 2.132-1.092 2.14-2.06v-19.811"/></svg>
